<svg version="1.2" xmlns="http://www.w3.org/2000/svg" viewBox="0 0 512 512" width="3000" height="3000">
	<title>logomark_white-svg</title>
	<style>
		.s0 { fill: #ffffff } 
	</style>
	<g id="dyNBJQiY_z1C0EPT08qo1">
		<path id="Layer" class="s0" d="m135 234.2c1 0.9 1.3 2.2 1.7 3.4 0.5 1.1 0.9 2.3 1.2 3.5 0.7 2.2 1.5 4.2 3 5.9 2.1 2.4 3.5 5.1 5.1 7.7 2 3.2 3.9 6.3 6.7 8.8 0.5 0.5 0.6 0.9 0.1 1.4-0.1 0.2-0.4 0.4-0.3 0.7 0.3 0.4 0.6 0.2 0.9 0.2 1.3 0 1.7 0.5 1.1 1.6-0.4 0.8-0.8 1.4 0.4 1.6 0.1 0.1 0.3 0.3 0.3 0.4 0.1 1.3 1.2 2 1.9 2.9 0.2 0.3 0.6 0.6 0.6 0.9 0 1.1 0.6 1.7 1.4 2.2 0.4 0.2 0.7 0.6 0.9 1 0.3 0.7 0.5 1.3 1.5 1 0.5-0.2 0.7 0.2 0.5 0.7-0.7 1.8-0.2 3 1.5 3.7 0.7 0.3 1.3 0.6 2 0.8 0.8 0.3 0.9 1.1 1.3 1.7 0.2 0.4 0.4 0.9 0.4 1.5 0 0.3-0.7 0.5-0.2 0.9 0.8-0.4 1.8-1.2 2.1 0.5 0 0.3 0.1 0.7-0.1 0.8-1 0.8-0.3 1.3 0.2 1.9q0.9 1 1.8 2c0.2 0.2 0.3 0.4 0.5 0.5 1.2 0.9 1.5 1.3 1.9 2.9 0.2 0.7 0.4 1.5 1.5 1.5 0.7 0 1.1 0.5 1.1 1.2 0 0.8 0.3 1.2 1.1 1.4 0.8 0.2 1.7 0.5 1.3 1.9-0.1 0.5 0.7 1.3 1.4 1.4 0.9 0.2 1.3 0.8 1.8 1.4 1.4 1.5 2.6 3.2 3.8 4.9 0.6 1 1.1 1.9 1.9 2.8 0.8 0.7 1 1.8 1.2 2.9 0.2 1 0.7 1.8 1.4 2.6 2.7 3 5.5 5.9 8.4 8.7 0.4 0.4 1 0.8 0.9 1.5 0 0.3 0.1 0.5 0.3 0.6 1.8 0.8 2.8 2.6 4.5 3.6 1.6 1.1 3.3 2.1 4.8 3.5 0.6 0.5 1.6 0.8 1.1 2.1 0 0.3 0.6 1.3 1.3 1.3 0.9 0 1.1 0.6 1.5 1.2q1.4 2.4 2.7 4.8c0.3 0.5 0.6 0.8 1.2 1 1.2 0.3 2.3 0.7 2.3 2.3 0 0.6 0.4 1 0.9 1.2 1 0.4 1.5 1.2 2.1 2 0.7 0.8 1 1.9 2.3 2.2 0.7 0.2 0.9 1.1 1.3 1.7 0.4 0.8 0.8 1.4 1.9 1.1 0.7-0.2 1 0.3 1.1 0.9 0 0.4 0 0.8 0.1 1.2 0.1 1.2 0.5 2.2 1.9 2.3 0.3 0.1 0.6 0.4 1 0.6 3.1 2.3 5.9 4.9 8.6 7.7 1.1 1.2 2.1 2.6 3.8 3.2 0.5 0.2 0.6 0.9 0.8 1.4 0.3 0.5 0.5 0.9 1.2 1 0.7 0.1 1.4 0.5 1.8 1.2 0.6 1.1 1.6 1.5 2.7 1.8 1.1 0.3 2.3 0.8 3.4 1.2 1 0.4 2.2 0.4 3.1 1.2 0.6 0.2 0.7 0.6 0.6 1.2 0 0.4-0.1 0.7-0.1 1 0.1 0.5 0.3 0.6 0.8 0.6 1.4-0.2 2.3 0.3 3.1 1.6 0.7 1 1.5 2.1 3 2.2q0.6 0.1 1 0.6c0.9 1.4 2.2 2.4 3.1 3.8 0.2 0.2 0.3 0.4 0.6 0.2 0.7-0.4 1.1 0.2 1.4 0.6 0.9 1 1.3 2.4 2.9 2.4 0.1 0 0.2 0.1 0.2 0.2-0.1 1.4 1.4 1.4 1.9 2.3 0.8 1.3 2.2 1.2 3.3 1.4 2.1 0.2 3.4 1.1 4.3 2.9 0.1 0.2 0.3 0.2 0.4 0.2 1.6 0.5 2.6 1.8 3.7 2.8 0.4 0.4 0.7 1.2 1.6 0.6 0.4-0.2 0.8 0.3 1 0.7 0.3 0.4 0.3 0.9 0.3 1.4 0.1 0.4 0.2 0.6 0.6 0.6 0.3-0.1 0.6-0.4 1 0 0.1 0.3 0.5 0.5 0.4 0.9 0.4 0.7 1.4 0.1 1.8 0.8 0.7 0.3 1.2 0.9 1.8 1.2 1.2 0.8 2.5 1.2 3.8 1.7 1.3 0.5 2.6 1 3.8 1.8q1.2 0.7 1.9 1.9c0.1 0.2 0.2 0.4 0.3 0.6 0.3 0.5-0.9 1.2-0.1 1.4 1.1 0.4 2.1 1.3 3.4 1.2 0.4 0 0.8-0.1 1.2 0.1 0.5 0.2 1.3-0.1 1.2 0.8 0 0.1 0.3 0.3 0.4 0.3 1.3 0.3 2.1 1.4 3.5 1.4 0.8 0 1.4 0.7 2 1.2 1.1 1.2 2.9 1.1 4.2 2 1.3-0.7 1.7 0.6 2.6 1 1.8 0.8 3.2 2.1 4.8 3.2 0.1 0 0.2 0.1 0.3 0.1 1.8-0.8 2.6 0.9 3.9 1.4 0.4 0.1 0.6 0.4 1 0.3 0.7 0 1 0.3 0.9 1-0.1 0.6 0.2 0.8 0.8 0.7q0.2 0.1 0.4 0.1c0.4 0.4 0.3 1.3 1.3 1.1 0.5-0.1 1 1 1.7 0.3 0.4-0.3 1.4 0.4 1.3 1.1-0.1 1.1 0.7 1.5 1.4 1.9 0.6 0.3 1.2 0.7 1.8 1 0.6-0.2 1.1-1 2-0.6q0.2-0.1 0.4 0c0.9 0.2 1.4 0.9 2 1.5 0.5 0.6 1 1.2 1.8 1.3 0.2 0 0.4 0.1 0.5 0.2 1.2 1.7 3.4 1.9 4.9 3 0.3 0.3 0.6 0.5 0.8 0.9 0.8 1.7 2 2.2 3.7 1.4 1.2-0.5 1.7-0.2 2.4 0.7 0.6 0.8 1.4 1.5 2.3 2q1.2 1.4 2.6 0.2c0.6 0.5 1.3 1.1 1.8 1.7 0.6 0.6 1.3 1.1 2.1 1.4 0.1 0 0.2 0.1 0.3 0.1 0.8-0.1 0.3 0.9 0.8 1 0.6 0.2 0.7-0.7 1.2-0.7 0.4 0 0.5 0.2 0.5 0.6 0.1 1.1 1.1 2 2.1 2 2.6 0 3.5 0.6 4.1 3 1.2-0.6 2.2-0.7 2.9 0.8 0.8-0.4 0.6-1.6 1.6-1.6 0.7 0.1 0.5 0.9 0.8 1.3 0.3 0.5 0.5 1.1 1.2 0.5 0.6-0.3 1.4 0.1 1.9-0.5 0.3-0.3 0.6 0.1 0.9 0.3 1.1 0.9 2.3 1.7 3.2 2.9 0.3 0.4 0.6 0.8 1.2 0.3 0.5-0.4 1-0.1 1.4 0.2 0.5 0.5 0.9 1 1.3 1.5 0.4 0.7 0.6 1.5 1.6 0.7 0.4-0.2 0.9 0.3 1.3 0.7 0.5 0.3 0.9 0.6 1.5 0.3 1.2-0.5 1.2-0.4 1.9 0.7 0 0.1 0.1 0.3 0.3 0.2 0.4-1.6 0.4-1.6 2-0.7 0.4 0.2 0.7 0.5 1.1 0.5 0.1-0.1 0.2-0.2 0.2-0.3 0.1-0.3-0.4-0.8 0.2-1 0.3-0.1 0.6 0.2 0.8 0.4q1 1 1.4 2.3c0.5 1.2 1.1 2.4 2.5 2.8 0.6 0.1 0.7-0.2 0.5-0.7-0.3-0.4-0.3-0.9-0.1-1.3 0.4-0.7 0.8-0.8 1.1 0.1-0.2 0.4-0.3 0.8 0.3 1 0.6-0.2 0.9-0.7 1-1.2 0.2-0.8 0.7-0.7 1.2-0.4 0.3 0.2 0.5 0.4 0.7 0.7 0.3 0.6 0.6 0.5 1.1 0.2 0.7-0.4 1.2-0.2 1.1 0.7-0.2 1.2 0.4 1.3 1.4 1.4 1.5 0.2 3.1 0.8 4.7 1.2l0.2-0.2c-0.5-0.4-0.6-1-0.8-1.4-0.5-0.8-1-1.4-2-1.7-0.7-0.2-1.4-0.7-2.2-1-0.7-0.3-0.7-1-0.5-1.7 0.2-0.5 0.6-1 0.4-1.7-0.1-0.4-0.5-0.4-0.6-0.2-0.4 1.1-1.3 1-2.2 0.9q-1.3-0.5-1.8-1.9-0.4-0.9-1-1.7c-0.2-0.3-0.5-0.4-0.9-0.2-0.3 0.1-0.4 0.5-0.3 0.8 0.1 0.5 0.9 1 0.3 1.5-0.4 0.2-0.9 0.3-1.4 0.5-1 0.5-2.1-0.3-1.9-1.4 0.2-0.8-0.1-1.1-0.6-1.5-0.9-0.7-1.8-1.5-2.7-2.2-0.9-0.7-1.9-1.3-3-1.3-0.7-0.1-1.4 0.2-1.3-0.9 0-0.3-0.4-0.4-0.7-0.4-0.9-0.1-1.8-0.6-2.6-1-0.6-0.3-1.1-0.7-1.8-0.1-0.4 0.3-0.8 0.1-0.9-0.4 0-0.2 0-0.5-0.1-0.7-0.3-0.8-0.8-1.1-1.7-0.7-0.6 0.2-0.7-0.7-1.3-0.7-0.5 0.1-0.8 0-0.9-0.4-0.3-0.6-0.5-1-1-1.3-0.5-0.3-0.5-0.7 0-0.9 0.7-0.2 1-0.4 1.1-1.1 0.2-0.9-0.3-1.3-0.8-1.8-0.2-0.2-0.5-0.4-0.8-0.3-0.4 0.3-0.4 0.9-0.5 1.3-0.4 1.1-0.4 1.1-1.6 0.8-0.4-0.2-0.7-0.4-0.6-0.9-0.3-0.9-1-0.1-1.4-0.2-0.6-0.1-1.1 0.1-1.6-0.5-0.5-0.7-0.9-0.3-1.2 0.3-0.1 0.4-0.2 0.8-0.7 0.6-0.5-0.1-0.7-0.3-0.6-0.8v-0.2c0.2-1.1-0.9-1.5-1.2-2.3-0.3-0.8 0.6-1.8-0.5-2.4-0.2-0.7-0.3-1.5-1.2-1.7q-0.5-0.5-0.7-1.2c0-0.2-0.1-0.6-0.5-0.4-0.3 0.1-0.4 0.4-0.4 0.7 0.2 0.5 0.4 1.1 0.6 1.7-1.1 0.3-1.7 1-1.6 2.2 0 0.5-0.2 0.8-0.8 0.8-0.7 0-1.4 0.2-1.7-0.7-0.2-0.3 0.1-0.7-0.2-1.1-0.4-0.3-0.7 0.2-1 0.3-0.5 0.2-0.9-0.1-1.1-0.5-0.2-0.3-0.2-0.6 0.1-0.9 0.3-0.3 0.8-0.4 1-0.8q0.1-0.4 0.2-0.9c0-0.6 0.1-1.3 0-1.9-0.4-0.2-0.6 0.1-0.9 0.2-0.4 0.1-0.6 1-1.2 0.6-0.6-0.5-1.5-0.6-1.5-1.8 0-0.8 0.1-2-1.2-2.2-0.4-0.1-0.3-0.6-0.3-0.9 0-0.9-0.5-1.1-1.2-1.4-1.4-0.5-2.9-0.5-4.3-1.3-0.5-0.3-0.7 0.3-1.1 0.5-0.6 0.3-1.2 0.8-1.5-0.4-0.4-1.1-1.3-1.8-1.9-2.8-0.3-0.6-0.8-0.3-1.3-0.3-0.7-0.1-1.4-1.2-2.3-0.2-0.2 0.2-0.5 0-0.6-0.1-0.7-0.6-1.7-1.1-1.9-2.1-0.3-1.2-1.2-1.5-2.1-1.6-0.7 0-1.3-0.2-1.9-0.5-0.7-0.3-1.4-0.4-2.1 0.1-0.5-0.1-0.5-0.4-0.3-0.8 0.2-0.3 0.3-0.7-0.1-0.9q-0.3 0-0.5-0.1c-1.8-0.5-2.4-2-3.4-3.3 0.1-0.5-0.3-0.8-0.7-0.7-0.7 0.2-1-0.4-1.5-0.6-1.1-0.2-2.1-0.4-3.1-0.5-0.5-0.1-0.9-0.4-1.1-0.7-0.4-0.5-0.3-0.8 0.2-1.1 0.1-0.1 0.3-0.1 0.5-0.2 0.3-0.1 1-0.1 0.9-0.7 0-0.5-0.6-0.6-1-0.7-1.5-0.6-2.9-0.6-4.2 0.2-0.7 0.3-1 0.3-1.3-0.4-0.8-1.8-2.1-3.4-2.5-5.4-0.2-1.1-1-1.9-1.5-2.7 0.3-0.5 0.6-0.3 1-0.3 0.3 0 0.7 0.1 0.8-0.3 0.1-0.4-0.2-0.6-0.4-0.9-0.8-0.6-1.5-1.1-2.5-1.4-0.6-0.2-1.1-0.4-1.6 0.5-0.5 0.8-1.6 0.7-2.5 0.9-0.1 0-0.2-0.3-0.3-0.4-0.6-0.6-0.8-0.1-1.1 0.3-1.5 0.1-2.3-0.5-2.4-1.8 0-0.4-0.2-0.4-0.4-0.5q-1.8-0.6-3.5-1.2c-0.4-0.1-0.8-0.3-0.8-0.8 0.1-0.6-0.2-0.9-0.6-1.1-0.7-0.2-0.1 0.9-0.7 0.9q-0.7-0.2-0.7-0.9c-0.3-0.7-1.1-1.3-0.6-2.4 0.2-0.4-0.3-0.8-0.7-1-0.4-0.2-0.6 0.2-0.8 0.4-0.3 0.5-0.7 0.4-1.1 0.2-0.4-0.3-0.9-0.6-1.3-0.9-1-0.9-1.1-1.1-0.1-2.3-0.4-0.5-1-0.8-1.5-1.1-0.6-0.1-0.7-0.9-1.4-0.7q-0.5 0-0.9 0c-0.7-0.3-1.8-0.1-1.9-1.3 0.2-0.3-0.1-0.5-0.1-0.7-0.5-2.2-1.8-3.7-3.8-4.6q-0.3-0.1-0.5-0.1c-0.7-1.3-1.9-1.9-3.2-2.3-1-0.2-0.8 0.5-0.8 1-0.4 0.3-0.7 0.1-1-0.1-0.7-0.6-1.2-1.3-1.5-2.1-0.7-1-0.6-2.3-1.5-3.1-0.9-0.5-1.5-1.6-2.4-2.2-0.5-0.4-0.4-0.9-0.2-1.3 0-0.7-0.4-0.7-0.9-0.6-0.6 0.1-1.3 0.1-1.8-0.5-0.5-0.4-1-0.7-1.6-0.8-0.7-0.1-1.2-0.2-1-1.2 0.2-0.8-1-1.2-1.7-0.7-0.3 0.2-0.5 0.5-0.7 0.7-0.3 0.2-0.4 0.6-0.9 0.7q-0.7-0.9 0-1.8c0.3-0.3 0.4-0.7 0-0.9-0.8-0.4-1.1-1.3-2-1.7-0.5-0.1-0.6 0.3-0.7 0.7-0.2 0.4-0.5 0.6-0.9 0.6-1-0.1-1.5-1-2.4-1.2-0.9-0.4-1.4-0.9-1.4-1.9-0.1-0.8-0.6-1.3-1.5-0.9q-0.3 0.2-0.6 0.3c-0.2 0.2-0.4 0.4-0.7 0.5q-0.3 0.1-0.5 0c-0.4-0.5-1-0.9-1-1.7q0-0.2 0-0.4c0.1-0.4-0.5-0.6-0.3-1-0.1-0.4-0.3-0.7-0.6-0.8-0.3-0.8-0.3-0.8 0.8-1.1 0.6-0.8 0.3-1.4-0.4-2q-0.4-0.3-0.8-0.5c-1.3-0.6-2.3-1.6-3.1-2.7-0.6-0.2-1.1-0.4-1.2-1.1-0.1-0.4-0.2-0.8-0.7-0.4-1.3 0.3-1.1-0.9-1.4-1.5-0.4-0.7 0.1-0.9 0.7-0.9 1.2-0.6 0.4-1.2-0.1-1.5-0.5-0.3-1-0.4-1.5-0.7-0.4-0.3-0.6-1.3-1.3-0.4-0.2 0.2-0.5-0.1-0.6-0.4-0.2-0.3-0.2-0.7-0.4-1.1-0.1-0.4-0.2-0.7-0.7-0.6-0.8 0.2-1-0.2-0.9-0.9 0-0.5-0.4-0.7-0.8-0.5-0.5 0.2-1 0.5-1.4 0.2-0.6-0.4-0.6-1.1-0.7-1.7q0-0.2 0-0.5c0.2-1.1-0.1-1.8-1.3-2.2-1.4-0.5-2.4-1.6-3.7-2.3-0.6-0.5-0.8-1.6-1.3-2.5 0.1-0.1 0.1-0.3 0.1-0.5v0.1c0.1-0.3-0.2-0.5-0.1-0.8 0-0.5 0-0.9 0.2-1.4 0.4-0.6-0.2-1-0.5-1.4-0.5-0.7-0.9-1.3-0.9-2.2-0.1-1-0.1-2.1-0.3-3.1-0.1-1.3-0.7-2.4-1.7-3.2-0.3-0.2-0.6-0.4-1-0.2-1 0.5-1.1 0.5-1-0.6 0.1-0.9-0.2-1.5-0.7-2.1-1-1-2-2.1-3-3.2-0.4-0.4-0.6-1.2-1.4-0.3-0.4 0.4-2.2-0.8-2.2-1.6 0-0.9-0.8-0.6-1-1.1-0.4-0.8-1-0.2-1.4 0.1-0.6 0.4-0.9 0.1-1.2-0.4-0.9-1.2-1.6-2.4-1.8-3.9 0-0.7-0.2-1.3-0.7-1.8-3.3-3.9-6.2-8-8.9-12.2-1.3-1.9-2.6-3.7-3.8-5.6-0.6-0.8-1.3-1.3-2.2-1.7-1.3-0.4-2.4-1-3.2-2.1-1.1-1.3-2.1-2.6-3.4-3.6-0.6-0.4-0.2-1.1-0.7-1.4-0.7-0.2-1.1-0.4-0.9-1.3 0.3-0.8-0.1-1.4-0.7-1.9-0.5 0.4 0.3 1.3-0.6 1.3-0.7 0.1-1-0.5-1.2-1.1-0.5-1.3-1.5-2.1-2.7-2.6-0.7-0.4-1.4-0.8-1.7-1.7-0.1-0.3-0.3-0.7 0.1-0.7 1.4-0.2 0.6-0.8 0.3-1.3-0.6-1.1-1.7-1.8-2.6-2.6-0.9-0.8-1.8-1.6-2.3-2.6-0.3-0.6-0.9-0.9-1.3-1.4-0.3-0.4-0.8-0.1-1.2 0q-1 0.4-1.3-0.6c-0.2-0.7 0.2-1 0.8-1.2 0.3-0.1 0.7-0.1 1-0.2 0.2-0.1 0.3-0.4 0.3-0.6q0-0.3-0.4-0.4c-1.6-0.4-2.6-1.6-3.6-2.8-1.2-1.5-1.8-3.4-2.4-5.3q-0.6-1.6-1.2-3.1c-0.3-0.7-0.7-1-1.5-0.9-1.9 0.1-2.3-0.3-2.8-2.2 0.1-0.6 0.9-0.3 1.1-0.8-0.3-0.8-0.5-1.6-1.6-1.7q-1.3-0.1-0.5-1.2c0.5-0.5 0.4-0.8 0.1-1.3-2.5-3.6-4.2-7.6-6.2-11.5-1-2.1-2.4-4.1-4.4-5.4-0.5-0.3-0.7-0.7-0.9-1.2-0.4-0.9-0.9-1.9-1-2.8-0.4-2.3-1.7-4.1-2.4-6.3-0.1-0.3-0.4-0.7-0.7-0.9-0.6-0.4-1.1-0.8-0.8-1.6 0.1-0.3-0.2-0.5-0.4-0.7-0.4-0.6-1.3-1.2-0.3-2.1 0 0 0-0.2-0.1-0.3-0.8-1.7-0.9-3.7-2-5.3-0.3-0.4-0.5-0.7-0.5-1.2 0-0.6-0.2-1-0.8-1-0.6 0-0.7-0.3-0.7-0.7-0.1-3.5-1.7-6.5-3.3-9.5-1.2-2.1-2.3-4.3-2.9-6.7-0.1-0.5-0.3-1-0.7-1.3-1-0.9-1.5-2.1-1.7-3.4q0-0.4-0.1-0.8c-0.2-1.7-1-3-2.4-3.8-1.2-0.7-1.2-1.2-0.1-1.9 0.6-0.4 0.4-0.7 0.3-1.1-1.1-3-2.1-5.9-3.1-8.9-2.4-6.4-4.9-12.7-6.8-19.3-2.2-8-5.1-15.7-7.7-23.6-0.4-1.2-0.9-2.4-1.6-3.5-0.1-0.8-0.8-1.4-1.2-2.1 0.2-0.9-0.2-2 0.9-2.6 0.3-0.2 0.1-0.6 0-0.8-1-3-1.4-6.1-2.2-9.2-0.5-2.1-1.1-4.2-2.3-6.1-0.2-0.3-0.5-0.6-0.1-1 0.5-0.7 0.2-1.3-0.1-1.9-0.5-0.9-1.1-1.8-1.7-2.7-0.7-1.1-1.5-2.1-1.6-3.5 0-0.3-0.1-0.7-0.6-0.6-0.5 0.1-0.6-0.2-0.6-0.6 0-2.9-1.2-5.2-2.5-7.6-1.3-2.2-2.8-4.4-3.4-6.9-0.3-1.1-1-0.5-1.5-0.4-0.4-0.8 0.1-1.5-0.2-2.2-0.6-0.3-0.6 0.9-1.1 0.4-0.4-0.5 0.1-0.9 0.5-1.3 1-0.9 1-1.1 0-2.2-0.7-0.9-0.9-2-0.6-3.1 0-0.3 0.4-0.6 0.1-0.8-0.8-0.8-0.3-1.8-0.3-2.7 0-1.4 0-1.5-1.5-1.6-0.7 0-0.8-0.4-0.7-0.9 0.3-0.9 0.9-1.7 0.1-2.7 0 0 0.1-0.3 0.2-0.4 0.8-0.9 0-1.6-0.1-2.4 0-0.3-0.2-0.6-0.5-0.6-1.1-0.2-1.7-1.3-2.7-1.6-0.9-0.3-1.1-2-0.4-2.8 0.2-0.2 0.4-0.5 0.7-0.6 1.3-0.4 1.8-1.1 1.2-2.4-0.5-1 0.8-0.6 1.2-1.2-0.4-0.7-1-1.1-1.8-1.1-0.9-0.1-1.6-0.3-2.1-1.1-0.3 0.3-0.1 0.5-0.1 0.7 0.2 1.3 0.2 1.2-1 1.7-1.3 0.6-2.4 1.4-3.2 2.6-2.1 3.4-3.5 7-4.5 10.8-1.9 7.2-2.5 14.6-2.5 22 0 12.5 1.5 24.8 4 37 2.5 12.4 5.8 24.4 9.9 36.3 0.3 0.8 0.6 1.5 1.2 2.1 0.6 0.5 1.1 1.1 1.2 1.9 0 0.4 0.4 0.6 0.7 0.8 0.9 0.7 1.3 1.6 1.2 2.8-0.2 1.3 0.2 2.6 1.1 3.7 0.4 0.5 0.5 1.1 0.4 1.7-0.1 0.6-0.2 1.2-0.3 1.9 0 0.4 0 0.9 0.5 1.1 1.7 0.9 1.7 2.5 1.7 4.1 0 1 0.1 1.8 0.5 2.7 1.5 3.9 3.2 7.8 4.2 11.9 0.4 1.4 0.7 2.8 0.9 4.3 0 0.4 0 0.9 0.5 1.1 1.7 0.8 2.2 2.5 2.7 4.1 0.1 0.7 0.5 1.3 0.7 2 0.1 0.4 0.4 0.3 0.7 0.4q0.5 0 0.3 0.5c0.1 0.2-0.2 0.4-0.2 0.7q0.1 0.4 0.5 0.6c0.9 0.7 1.7 1.5 1.4 2.8 0 0.3 0 1 0.4 1 1.3-0.1 1 0.8 1 1.4 0 2.3 0.4 4.5 0.6 6.7 0.4 1 0.7 2.1 1.9 2.4 1.6 0.6 1.7 0.7 1.6 2.2-0.1 1.8 0.6 3.3 1.3 4.8 1.3 3.1 3.1 5.8 5.1 8.4 0.5 0.7 1.1 1.3 1.1 2.2-0.8 0.7-0.7 1.5 0.3 2.1z"/>
	</g>
</svg>